<svg width="2654" height="1494" viewBox="0 0 2654 1494" fill="none" xmlns="http://www.w3.org/2000/svg">
<path fill-rule="evenodd" clip-rule="evenodd" d="M2654 0H0V811.822H3.51058L5.26587 813.577H7.02116L7.89881 806.556H14.0423L15.7976 807.434H20.1858V810.944H24.5741L28.9623 809.189L39.494 806.556L49.1481 803.923L61.4352 801.29H70.2116L74.5999 798.657L84.254 796.902L90.3975 796.024H96.541L106.195 795.147L108.828 793.391H113.216L122.87 795.147L131.647 793.391L150.077 791.636L161.487 792.514L170.263 793.391L172.019 791.636H199.226L200.981 793.391L202.736 795.147L201.858 798.657V802.168L204.491 798.657L205.369 794.269H214.146L215.023 797.78H216.778L222.922 790.759L229.065 791.636L230.821 796.024L236.087 793.391L240.475 792.514L254.517 793.391L256.272 796.024L259.783 797.78H265.049L272.07 796.024H279.969L281.724 799.535V803.923L284.357 804.801L287.868 802.168L292.256 801.29L294.889 803.046L300.155 803.923L301.91 805.678H304.543L306.298 803.923H310.686L313.319 803.046H317.708V804.801L322.096 805.678L323.851 803.923H329.995V806.556H333.505L336.138 805.678L341.404 803.046H346.67L349.303 805.678L357.202 808.311H362.468L366.856 810.067H374.755H382.653L386.164 811.822L393.185 810.067H398.451L400.206 809.189H402.839L407.228 810.944L410.738 811.822V807.434L408.983 806.556L412.493 805.678V804.801H419.515L421.27 808.311H425.658L427.413 807.434L430.046 804.801H435.312L439.7 806.556L443.211 810.067H445.844L446.722 808.311L449.354 810.067H453.743L460.764 808.311L465.152 806.556H477.439L486.216 804.801H505.524L507.279 807.434L509.912 806.556L514.3 803.923H524.832L534.486 807.434H540.63L541.507 803.046H545.896L546.773 807.434L551.161 808.311L553.794 809.189L559.938 805.678H564.326L568.714 801.29H573.102L575.735 805.678L577.491 800.413H581.001L582.757 805.678H586.267L588.9 802.168L591.533 803.046L595.044 806.556H603.82L605.575 803.046H610.841L612.597 807.434L617.862 805.678L619.618 806.556L622.251 807.434H625.761L634.538 806.556L644.192 800.413L649.458 801.29L651.213 802.168L656.479 801.29L662.622 800.413L667.011 802.168L673.154 804.801L681.053 806.556H685.441L690.707 799.535H695.095C695.797 799.535 697.143 803.046 697.728 804.801L701.239 803.923L708.26 804.801H724.058L729.323 806.556L741.61 805.678L743.366 808.311L749.509 807.434L755.653 802.168L758.286 803.046L761.796 808.311L778.472 807.434L788.126 801.29L794.269 805.678L796.902 807.434L808.312 806.556L813.577 808.311L821.476 807.434L828.497 803.923L837.274 802.168L844.295 805.678L847.806 808.311C851.609 807.726 859.39 806.556 860.093 806.556C860.531 806.556 863.384 806.337 866.236 806.117C869.088 805.898 871.941 805.678 872.38 805.678H882.034L895.198 808.311H910.118C910.82 808.311 920.358 809.482 925.038 810.067H933.815H936.448L941.714 806.556C943.176 806.264 946.277 805.678 946.979 805.678H950.49L952.245 809.189L957.511 811.822L966.288 813.577L983.841 811.822H995.25H999.638L1012.8 812.7H1020.7H1030.36H1033.87L1035.62 815.333L1040.01 813.577L1042.64 815.333L1043.52 817.966L1047.03 817.088C1047.03 816.503 1047.21 815.157 1047.91 814.455C1048.61 813.753 1050.54 814.162 1051.42 814.455L1054.05 817.088V818.843L1061.07 817.088C1061.66 816.795 1063.36 816.386 1065.46 817.088C1067.4 817.734 1068.86 817.429 1069.85 817.223C1070.2 817.149 1070.5 817.088 1070.73 817.088C1071.43 817.088 1075.12 816.503 1076.87 816.21L1081.26 815.333H1093.55L1096.18 817.088H1099.69C1103.49 816.795 1111.27 816.21 1111.98 816.21C1112.27 816.21 1112.46 816.113 1112.72 815.983C1113.24 815.723 1114.02 815.333 1116.37 815.333H1129.53H1147.08H1159.37H1163.76H1183.94L1194.48 817.966H1201.5C1201.94 817.966 1204.79 817.746 1207.64 817.527C1210.49 817.307 1213.34 817.088 1213.78 817.088C1214.49 817.088 1219.34 817.673 1221.68 817.966L1242.75 818.843H1258.54C1259.42 818.551 1261.35 817.966 1262.05 817.966C1262.49 817.966 1263.59 818.624 1264.69 819.282C1265.78 819.94 1266.88 820.598 1267.32 820.598H1274.34C1275.04 820.598 1286.92 822.354 1292.77 823.231L1304.18 824.987H1314.71H1326.12L1376.15 825.864L1383.17 824.987L1388.44 826.742L1398.09 823.231C1398.38 822.939 1399.14 822.354 1399.84 822.354H1407.74L1416.52 816.21L1424.42 814.455L1438.46 808.311L1443.73 804.801L1456.01 799.535L1464.79 798.657L1470.06 792.514H1477.95C1478.66 792.514 1484.1 791.344 1486.73 790.759L1492.88 787.248L1500.77 781.104L1507.79 779.349L1521.84 776.716L1529.74 775.839C1530.91 775.546 1533.6 774.961 1535 774.961C1536.41 774.961 1544.36 772.62 1548.17 771.45H1559.58L1563.96 770.573L1581.52 769.695L1593.8 768.817L1598.19 766.184H1611.36C1612.06 766.184 1618.09 765.599 1621.01 765.307C1622.77 764.137 1626.45 761.796 1627.15 761.796H1633.3H1649.97C1652.31 760.919 1657.17 759.163 1657.87 759.163C1658.75 759.163 1664.89 759.163 1666.65 758.286C1667.36 757.93 1668.79 756.999 1670.3 756.016C1672.52 754.573 1674.9 753.02 1675.43 753.02H1684.2C1684.9 753.02 1688.59 752.435 1690.35 752.142L1702.63 753.02C1704.09 752.435 1707.2 751.264 1707.9 751.264H1714.92C1715.8 750.387 1717.73 748.632 1718.43 748.632C1719.13 748.632 1722.23 748.046 1723.7 747.754L1727.21 745.121C1727.79 744.828 1729.14 744.243 1729.84 744.243H1739.49L1751.78 742.488H1764.95H1778.11H1779.87L1784.25 738.977L1798.3 738.1L1804.44 737.222L1807.95 735.467H1821.11H1829.89L1837.79 734.589L1850.08 731.956C1850.37 731.664 1851.48 731.079 1853.59 731.079H1860.61H1869.38C1869.88 731.079 1870.65 730.525 1871.54 729.884C1872.23 729.384 1873 728.831 1873.77 728.446C1875.13 727.769 1878.57 728.136 1880.48 728.339C1881.04 728.4 1881.47 728.446 1881.67 728.446C1882.11 728.446 1883.87 728.226 1885.62 728.007C1887.38 727.787 1889.13 727.568 1889.57 727.568C1890.27 727.568 1896.3 726.983 1899.22 726.69C1900.4 725.52 1903.09 723.18 1904.49 723.18H1914.14C1914.87 723.18 1916.8 723.029 1919.07 722.853C1922.27 722.603 1926.13 722.302 1928.19 722.302H1936.96C1938.41 722.302 1941.19 722.036 1943.69 721.797C1945.73 721.602 1947.58 721.424 1948.37 721.424H1952.76C1954.81 721.717 1959.43 721.951 1961.54 720.547C1961.99 720.246 1962.42 719.944 1962.83 719.652C1964.82 718.241 1966.53 717.036 1969.44 717.036C1972.24 717.036 1975.29 718.206 1976.46 718.792L1979.97 715.281C1979.97 714.403 1980.67 712.999 1983.48 714.403C1985.23 715.281 1986.55 716.158 1987.54 716.817C1988.53 717.475 1989.18 717.914 1989.62 717.914C1989.85 717.914 1990.27 717.975 1990.77 718.049C1992.17 718.255 1994.24 718.56 1994.89 717.914C1995.59 717.212 2001.03 715.281 2003.66 714.403C2003.66 713.526 2004.02 711.77 2005.42 711.77H2013.32H2015.07L2017.71 706.504L2019.46 704.749L2022.1 707.382L2023.85 710.015C2023.85 710.307 2024.03 710.893 2024.73 710.893C2025.43 710.893 2027.36 710.307 2028.24 710.015C2029.12 709.137 2030.87 707.206 2030.87 706.504C2030.87 706.169 2030.74 705.962 2030.63 705.785C2030.46 705.499 2030.33 705.292 2030.87 704.749C2031.75 703.871 2035.26 702.994 2036.14 702.994H2038.77V698.606L2042.28 701.239L2043.16 702.994L2046.67 701.239V695.973L2051.06 697.728H2051.94L2054.57 695.095L2055.45 693.34L2058.08 691.585L2059.83 694.218L2060.71 696.851L2061.59 698.606L2065.1 699.483L2071.24 698.606C2073 698.313 2076.68 697.728 2077.39 697.728C2077.75 697.728 2078.11 697.427 2078.54 697.074C2079.14 696.575 2079.87 695.973 2080.9 695.973C2081.93 695.973 2083.25 695.069 2084.36 694.321C2085.14 693.791 2085.8 693.34 2086.16 693.34C2086.6 693.34 2087.48 692.682 2088.36 692.023C2089.24 691.365 2090.11 690.707 2090.55 690.707C2090.99 690.707 2091.87 689.829 2092.75 688.952C2093.62 688.074 2094.5 687.196 2094.94 687.196C2095.64 687.196 2098.16 688.367 2099.33 688.952L2102.84 688.074C2104.59 686.904 2108.28 684.563 2108.98 684.563C2109.35 684.563 2110.46 684.714 2111.77 684.891C2113.62 685.14 2115.85 685.441 2116.88 685.441H2122.15H2126.53H2130.92C2131.63 685.441 2135.9 683.686 2137.94 682.808L2145.84 679.298L2166.91 678.42H2173.93L2181.83 676.665L2188.85 677.542H2201.14L2202.89 676.665H2208.16H2216.05H2223.95H2234.49L2246.77 677.542L2247.65 679.298H2252.04C2252.74 679.298 2256.43 677.542 2258.18 676.665L2265.2 674.032C2267.25 673.447 2271.52 672.276 2272.22 672.276C2272.66 672.276 2274.2 672.057 2275.73 671.838C2277.27 671.618 2278.81 671.399 2279.25 671.399C2279.95 671.399 2293 670.814 2299.43 670.521L2311.72 669.643L2317.86 667.011L2322.25 664.378L2326.64 663.5L2330.15 659.989L2332.78 658.234H2333.66L2343.31 656.479C2345.36 655.601 2349.63 653.67 2350.33 652.968C2351.04 652.266 2352.38 651.505 2352.97 651.213L2359.11 650.335L2365.25 647.702L2368.77 645.069L2374.91 643.314L2378.42 642.436L2381.93 641.559L2385.44 639.804L2388.95 638.048L2392.46 637.171L2397.73 631.905L2404.75 630.149L2405.63 627.517C2406.5 627.224 2408.43 626.639 2409.14 626.639C2409.49 626.639 2409.84 626.358 2410.19 626.077C2410.72 625.656 2411.24 625.235 2411.77 625.761C2412.47 626.463 2416.16 627.224 2417.91 627.517L2421.42 626.639L2424.93 625.761L2427.57 624.006C2428.15 622.836 2429.67 620.495 2431.08 620.495C2432.48 620.495 2435.17 621.08 2436.34 621.373L2437.22 624.884L2441.61 626.639L2448.63 623.128L2455.65 621.373C2456.82 621.666 2459.34 622.426 2460.04 623.128C2460.74 623.83 2462.09 624.006 2462.67 624.006C2464.14 623.128 2467.24 621.373 2467.94 621.373C2468.38 621.373 2469.26 620.934 2470.13 620.495C2471.01 620.057 2471.89 619.618 2472.33 619.618C2472.77 619.618 2473.86 619.398 2474.96 619.179C2476.06 618.96 2477.15 618.74 2477.59 618.74H2489C2490.17 617.57 2492.69 615.229 2493.39 615.229C2493.75 615.229 2494.87 614.928 2496.18 614.575C2498.03 614.076 2500.26 613.474 2501.29 613.474H2504.8H2511.82L2518.84 611.719L2523.23 610.841L2533.76 609.086H2538.15C2538.85 609.086 2540.78 609.671 2541.66 609.964C2542.83 608.793 2545.35 606.453 2546.05 606.453H2550.44C2552.19 606.453 2556.58 607.331 2556.58 608.208C2556.58 608.91 2560.68 610.256 2562.72 610.841L2573.26 613.474C2573.84 614.644 2575.19 616.985 2575.89 616.985C2576.77 616.985 2582.91 617.862 2583.79 618.74C2584.37 619.325 2586.13 618.74 2587.49 618.285C2588.18 618.057 2588.76 617.862 2589.05 617.862C2589.76 617.862 2592.86 616.692 2594.32 616.107L2600.46 613.474L2606.61 611.719L2610.12 609.086L2621.53 608.208L2625.04 609.086L2632.94 606.453L2639.08 603.82L2645.22 602.942L2651.37 602.065H2654V0Z" fill="black"/>
</svg>
