<svg width="1512" height="2719" viewBox="0 0 1512 2719" fill="none" xmlns="http://www.w3.org/2000/svg">
<path fill-rule="evenodd" clip-rule="evenodd" d="M1512 0H0V462.5H2L3 463.5H4L4.5 459.5H8L9 460H11.5V462H14L16.5 461L22.5 459.5L28 458L35 456.5H40L42.5 455L48 454L51.5 453.5H55L60.5 453L62 452H64.5L70 453L75 452L85.5 451L92 451.5L97 452L98 451H113.5L114.5 452L115.5 453L115 455V457L116.5 455L117 452.5H122L122.5 454.5H123.5L127 450.5L130.5 451L131.5 453.5L134.5 452L137 451.5L145 452L146 453.5L148 454.5H151L155 453.5H159.5L160.5 455.5V458L162 458.5L164 457L166.5 456.5L168 457.5L171 458L172 459H173.5L174.5 458H177L178.5 457.5H181V458.5L183.5 459L184.5 458H188V459.5H190L191.5 459L194.5 457.5H197.5L199 459L203.5 460.5H206.5L209 461.5H213.5H218L220 462.5L224 461.5H227L228 461H229.5L232 462L234 462.5V460L233 459.5L235 459V458.5H239L240 460.5H242.5L243.5 460L245 458.5H248L250.5 459.5L252.5 461.5H254L254.5 460.5L256 461.5H258.5L262.5 460.5L265 459.5H272L277 458.5H288L289 460L290.5 459.5L293 458H299L304.5 460H308L308.5 457.5H311L311.5 460L314 460.5L315.5 461L319 459H321.5L324 456.5H326.5L328 459L329 456H331L332 459H334L335.5 457L337 457.5L339 459.5H344L345 457.5H348L349 460L352 459L353 459.5L354.5 460H356.5L361.5 459.5L367 456L370 456.5L371 457L374 456.5L377.5 456L380 457L383.5 458.5L388 459.5H390.5L393.5 455.5H396C396.4 455.5 397.167 457.5 397.5 458.5L399.5 458L403.5 458.5H412.5L415.5 459.5L422.5 459L423.5 460.5L427 460L430.5 457L432 457.5L434 460.5L443.5 460L449 456.5L452.5 459L454 460L460.5 459.5L463.5 460.5L468 460L472 458L477 457L481 459L483 460.5C485.167 460.167 489.6 459.5 490 459.5C490.25 459.5 491.875 459.375 493.5 459.25C495.125 459.125 496.75 459 497 459H502.5L510 460.5H518.5C518.9 460.5 524.333 461.167 527 461.5H532H533.5L536.5 459.5C537.333 459.333 539.1 459 539.5 459H541.5L542.5 461L545.5 462.5L550.5 463.5L560.5 462.5H567H569.5L577 463H581.5H587H589L590 464.5L592.5 463.5L594 464.5L594.5 466L596.5 465.5C596.5 465.167 596.6 464.4 597 464C597.4 463.6 598.5 463.833 599 464L600.5 465.5V466.5L604.5 465.5C604.833 465.333 605.8 465.1 607 465.5C608.104 465.868 608.938 465.694 609.5 465.577C609.701 465.535 609.868 465.5 610 465.5C610.4 465.5 612.5 465.167 613.5 465L616 464.5H623L624.5 465.5H626.5C628.667 465.333 633.1 465 633.5 465C633.667 465 633.778 464.944 633.926 464.87C634.222 464.722 634.667 464.5 636 464.5H643.5H653.5H660.5H663H674.5L680.5 466H684.5C684.75 466 686.375 465.875 688 465.75C689.625 465.625 691.25 465.5 691.5 465.5C691.9 465.5 694.667 465.833 696 466L708 466.5H717C717.5 466.333 718.6 466 719 466C719.25 466 719.875 466.375 720.5 466.75C721.125 467.125 721.75 467.5 722 467.5H726C726.4 467.5 733.167 468.5 736.5 469L743 470H749H755.5L784 470.5L788 470L791 471L796.5 469C796.667 468.833 797.1 468.5 797.5 468.5H802L807 465L811.5 464L819.5 460.5L822.5 458.5L829.5 455.5L834.5 455L837.5 451.5H842C842.4 451.5 845.5 450.833 847 450.5L850.5 448.5L855 445L859 444L867 442.5L871.5 442C872.167 441.833 873.7 441.5 874.5 441.5C875.3 441.5 879.833 440.167 882 439.5H888.5L891 439L901 438.5L908 438L910.5 436.5H918C918.4 436.5 921.833 436.167 923.5 436C924.5 435.333 926.6 434 927 434H930.5H940C941.333 433.5 944.1 432.5 944.5 432.5C945 432.5 948.5 432.5 949.5 432C949.905 431.797 950.721 431.267 951.581 430.707C952.844 429.885 954.203 429 954.5 429H959.5C959.9 429 962 428.667 963 428.5L970 429C970.833 428.667 972.6 428 973 428H977C977.5 427.5 978.6 426.5 979 426.5C979.4 426.5 981.167 426.167 982 426L984 424.5C984.333 424.333 985.1 424 985.5 424H991L998 423H1005.5H1013H1014L1016.5 421L1024.5 420.5L1028 420L1030 419H1037.5H1042.5L1047 418.5L1054 417C1054.17 416.833 1054.8 416.5 1056 416.5H1060H1065C1065.28 416.5 1065.72 416.185 1066.23 415.82C1066.62 415.535 1067.06 415.219 1067.5 415C1068.27 414.614 1070.23 414.824 1071.32 414.939C1071.64 414.974 1071.89 415 1072 415C1072.25 415 1073.25 414.875 1074.25 414.75C1075.25 414.625 1076.25 414.5 1076.5 414.5C1076.9 414.5 1080.33 414.167 1082 414C1082.67 413.333 1084.2 412 1085 412H1090.5C1090.91 412 1092.01 411.914 1093.3 411.814C1095.13 411.671 1097.33 411.5 1098.5 411.5H1103.5C1104.33 411.5 1105.91 411.348 1107.33 411.212C1108.49 411.101 1109.55 411 1110 411H1112.5C1113.67 411.167 1116.3 411.3 1117.5 410.5C1117.76 410.328 1118 410.157 1118.24 409.99C1119.37 409.186 1120.34 408.5 1122 408.5C1123.6 408.5 1125.33 409.167 1126 409.5L1128 407.5C1128 407 1128.4 406.2 1130 407C1131 407.5 1131.75 408 1132.31 408.375C1132.88 408.75 1133.25 409 1133.5 409C1133.63 409 1133.87 409.035 1134.15 409.077C1134.95 409.194 1136.13 409.368 1136.5 409C1136.9 408.6 1140 407.5 1141.5 407C1141.5 406.5 1141.7 405.5 1142.5 405.5H1147H1148L1149.5 402.5L1150.5 401.5L1152 403L1153 404.5C1153 404.667 1153.1 405 1153.5 405C1153.9 405 1155 404.667 1155.5 404.5C1156 404 1157 402.9 1157 402.5C1157 402.309 1156.93 402.191 1156.86 402.09C1156.76 401.927 1156.69 401.809 1157 401.5C1157.5 401 1159.5 400.5 1160 400.5H1161.5V398L1163.5 399.5L1164 400.5L1166 399.5V396.5L1168.5 397.5H1169L1170.5 396L1171 395L1172.5 394L1173.5 395.5L1174 397L1174.5 398L1176.5 398.5L1180 398C1181 397.833 1183.1 397.5 1183.5 397.5C1183.71 397.5 1183.91 397.328 1184.16 397.127C1184.5 396.843 1184.91 396.5 1185.5 396.5C1186.09 396.5 1186.84 395.985 1187.47 395.559C1187.91 395.257 1188.29 395 1188.5 395C1188.75 395 1189.25 394.625 1189.75 394.25C1190.25 393.875 1190.75 393.5 1191 393.5C1191.25 393.5 1191.75 393 1192.25 392.5C1192.75 392 1193.25 391.5 1193.5 391.5C1193.9 391.5 1195.33 392.167 1196 392.5L1198 392C1199 391.333 1201.1 390 1201.5 390C1201.71 390 1202.34 390.086 1203.09 390.186C1204.14 390.328 1205.41 390.5 1206 390.5H1209H1211.5H1214C1214.4 390.5 1216.83 389.5 1218 389L1222.5 387L1234.5 386.5H1238.5L1243 385.5L1247 386H1254L1255 385.5H1258H1262.5H1267H1273L1280 386L1280.5 387H1283C1283.4 387 1285.5 386 1286.5 385.5L1290.5 384C1291.67 383.667 1294.1 383 1294.5 383C1294.75 383 1295.62 382.875 1296.5 382.75C1297.38 382.625 1298.25 382.5 1298.5 382.5C1298.9 382.5 1306.33 382.167 1310 382L1317 381.5L1320.5 380L1323 378.5L1325.5 378L1327.5 376L1329 375H1329.5L1335 374C1336.17 373.5 1338.6 372.4 1339 372C1339.4 371.6 1340.17 371.167 1340.5 371L1344 370.5L1347.5 369L1349.5 367.5L1353 366.5L1355 366L1357 365.5L1359 364.5L1361 363.5L1363 363L1366 360L1370 359L1370.5 357.5C1371 357.333 1372.1 357 1372.5 357C1372.7 357 1372.9 356.84 1373.1 356.68C1373.4 356.44 1373.7 356.2 1374 356.5C1374.4 356.9 1376.5 357.333 1377.5 357.5L1379.5 357L1381.5 356.5L1383 355.5C1383.33 354.833 1384.2 353.5 1385 353.5C1385.8 353.5 1387.33 353.833 1388 354L1388.5 356L1391 357L1395 355L1399 354C1399.67 354.167 1401.1 354.6 1401.5 355C1401.9 355.4 1402.67 355.5 1403 355.5C1403.83 355 1405.6 354 1406 354C1406.25 354 1406.75 353.75 1407.25 353.5C1407.75 353.25 1408.25 353 1408.5 353C1408.75 353 1409.38 352.875 1410 352.75C1410.62 352.625 1411.25 352.5 1411.5 352.5H1418C1418.67 351.833 1420.1 350.5 1420.5 350.5C1420.71 350.5 1421.34 350.328 1422.09 350.127C1423.14 349.843 1424.41 349.5 1425 349.5H1427H1431L1435 348.5L1437.5 348L1443.5 347H1446C1446.4 347 1447.5 347.333 1448 347.5C1448.67 346.833 1450.1 345.5 1450.5 345.5H1453C1454 345.5 1456.5 346 1456.5 346.5C1456.5 346.9 1458.83 347.667 1460 348L1466 349.5C1466.33 350.167 1467.1 351.5 1467.5 351.5C1468 351.5 1471.5 352 1472 352.5C1472.33 352.833 1473.33 352.5 1474.11 352.241C1474.5 352.111 1474.83 352 1475 352C1475.4 352 1477.17 351.333 1478 351L1481.5 349.5L1485 348.5L1487 347L1493.5 346.5L1495.5 347L1500 345.5L1503.5 344L1507 343.5L1510.5 343H1512V0ZM1512 2719H0V2720H1512V2719Z" fill="black"/>
</svg>
